<svg width="14" height="14" viewBox="0 0 14 14" fill="none" xmlns="http://www.w3.org/2000/svg">
<path id="Vector" d="M5.73333 8.20016L4.3 6.76683C4.17778 6.64461 4.02222 6.5835 3.83333 6.5835C3.64445 6.5835 3.48889 6.64461 3.36667 6.76683C3.24445 6.88905 3.18333 7.04461 3.18333 7.2335C3.18333 7.42239 3.24445 7.57794 3.36667 7.70016L5.26667 9.60016C5.4 9.7335 5.55556 9.80016 5.73333 9.80016C5.91111 9.80016 6.06667 9.7335 6.2 9.60016L9.96667 5.8335C10.0889 5.71127 10.15 5.55572 10.15 5.36683C10.15 5.17794 10.0889 5.02239 9.96667 4.90016C9.84445 4.77794 9.68889 4.71683 9.5 4.71683C9.31111 4.71683 9.15556 4.77794 9.03333 4.90016L5.73333 8.20016ZM6.66667 13.6668C5.74445 13.6668 4.87778 13.4917 4.06667 13.1415C3.25556 12.7913 2.55 12.3164 1.95 11.7168C1.35 11.1173 0.875112 10.4117 0.525334 9.60016C0.175556 8.78861 0.000445288 7.92194 8.43882e-07 7.00016C-0.000443601 6.07839 0.174668 5.21172 0.525334 4.40016C0.876001 3.58861 1.35089 2.88305 1.95 2.2835C2.54911 1.68394 3.25467 1.20905 4.06667 0.858829C4.87867 0.508607 5.74533 0.333496 6.66667 0.333496C7.588 0.333496 8.45467 0.508607 9.26667 0.858829C10.0787 1.20905 10.7842 1.68394 11.3833 2.2835C11.9824 2.88305 12.4576 3.58861 12.8087 4.40016C13.1598 5.21172 13.3347 6.07839 13.3333 7.00016C13.332 7.92194 13.1569 8.78861 12.808 9.60016C12.4591 10.4117 11.9842 11.1173 11.3833 11.7168C10.7824 12.3164 10.0769 12.7915 9.26667 13.1422C8.45644 13.4928 7.58978 13.6677 6.66667 13.6668Z" fill="white"/>
</svg>
