<svg width="29" height="28" viewBox="0 0 29 28" fill="none" xmlns="http://www.w3.org/2000/svg">
<g id="Img">
<path id="Vector" d="M12.1664 15.8668L19.0498 8.98343C19.2637 8.76954 19.5359 8.6626 19.8664 8.6626C20.197 8.6626 20.4692 8.76954 20.6831 8.98343C20.897 9.19732 21.0039 9.46954 21.0039 9.8001C21.0039 10.1307 20.897 10.4029 20.6831 10.6168L12.9831 18.3168C12.7498 18.5501 12.4775 18.6668 12.1664 18.6668C11.8553 18.6668 11.5831 18.5501 11.3498 18.3168L8.31644 15.2834C8.10255 15.0695 7.99561 14.7973 7.99561 14.4668C7.99561 14.1362 8.10255 13.864 8.31644 13.6501C8.53033 13.4362 8.80255 13.3293 9.13311 13.3293C9.46366 13.3293 9.73588 13.4362 9.94977 13.6501L12.1664 15.8668Z" fill="#144797"/>
</g>
</svg>
