<svg width="21" height="20" viewBox="0 0 21 20" fill="none" xmlns="http://www.w3.org/2000/svg">
<g id="Img">
<path id="Vector" d="M10.5002 11.1668L6.41683 15.2502C6.26405 15.4029 6.06961 15.4793 5.8335 15.4793C5.59738 15.4793 5.40294 15.4029 5.25016 15.2502C5.09738 15.0974 5.021 14.9029 5.021 14.6668C5.021 14.4307 5.09738 14.2363 5.25016 14.0835L9.3335 10.0002L5.25016 5.91683C5.09738 5.76405 5.021 5.56961 5.021 5.3335C5.021 5.09738 5.09738 4.90294 5.25016 4.75016C5.40294 4.59738 5.59738 4.521 5.8335 4.521C6.06961 4.521 6.26405 4.59738 6.41683 4.75016L10.5002 8.8335L14.5835 4.75016C14.7363 4.59738 14.9307 4.521 15.1668 4.521C15.4029 4.521 15.5974 4.59738 15.7502 4.75016C15.9029 4.90294 15.9793 5.09738 15.9793 5.3335C15.9793 5.56961 15.9029 5.76405 15.7502 5.91683L11.6668 10.0002L15.7502 14.0835C15.9029 14.2363 15.9793 14.4307 15.9793 14.6668C15.9793 14.9029 15.9029 15.0974 15.7502 15.2502C15.5974 15.4029 15.4029 15.4793 15.1668 15.4793C14.9307 15.4793 14.7363 15.4029 14.5835 15.2502L10.5002 11.1668Z" fill="#C20000"/>
</g>
</svg>
