<svg width="14" height="14" viewBox="0 0 14 14" fill="none" xmlns="http://www.w3.org/2000/svg">
<g id="Img">
<path id="Vector" d="M7.00013 8.73538C6.92235 8.73538 6.84944 8.72333 6.78138 8.69922C6.71332 8.67511 6.65013 8.63369 6.5918 8.57497L3.90846 5.89163C3.80152 5.78469 3.74805 5.64858 3.74805 5.4833C3.74805 5.31802 3.80152 5.18191 3.90846 5.07497C4.01541 4.96802 4.15152 4.91455 4.3168 4.91455C4.48207 4.91455 4.61819 4.96802 4.72513 5.07497L7.00013 7.34997L9.27513 5.07497C9.38207 4.96802 9.51819 4.91455 9.68346 4.91455C9.84874 4.91455 9.98485 4.96802 10.0918 5.07497C10.1987 5.18191 10.2522 5.31802 10.2522 5.4833C10.2522 5.64858 10.1987 5.78469 10.0918 5.89163L7.40846 8.57497C7.35013 8.6333 7.28694 8.67472 7.21888 8.69922C7.15082 8.72372 7.07791 8.73577 7.00013 8.73538Z" fill="#293241"/>
</g>
</svg>
