<svg width="32" height="33" viewBox="0 0 32 33" fill="none" xmlns="http://www.w3.org/2000/svg">
<g id="Component 1">
<path id="Vector" d="M21.533 17.9438H6.66634C6.28856 17.9438 5.97212 17.8158 5.71701 17.5598C5.4619 17.3038 5.3339 16.9874 5.33301 16.6105C5.33301 16.2327 5.46101 15.9162 5.71701 15.6611C5.97301 15.406 6.28945 15.278 6.66634 15.2771H21.533L17.733 11.4771C17.4663 11.2105 17.3383 10.8994 17.349 10.5438C17.3597 10.1882 17.4877 9.87713 17.733 9.61046C17.9997 9.3438 18.3166 9.20513 18.6837 9.19447C19.0508 9.1838 19.3672 9.31135 19.633 9.57713L25.733 15.6771C25.8663 15.8105 25.961 15.9549 26.017 16.1105C26.073 16.266 26.1006 16.4327 26.0997 16.6105C26.0997 16.7882 26.0721 16.9549 26.017 17.1105C25.9619 17.266 25.8672 17.4105 25.733 17.5438L19.633 23.6438C19.3663 23.9105 19.0499 24.0385 18.6837 24.0278C18.3175 24.0171 18.0006 23.878 17.733 23.6105C17.4886 23.3438 17.3606 23.0327 17.349 22.6771C17.3375 22.3216 17.4655 22.0105 17.733 21.7438L21.533 17.9438Z" fill="#04A9EC"/>
</g>
</svg>
