<svg width="32" height="33" viewBox="0 0 32 33" fill="none" xmlns="http://www.w3.org/2000/svg">
<g id="Component 1">
<path id="Vector" d="M10.4671 15.277H25.3337C25.7115 15.277 26.028 15.405 26.2831 15.661C26.5382 15.917 26.6662 16.2334 26.6671 16.6103C26.6671 16.9881 26.5391 17.3046 26.2831 17.5597C26.0271 17.8148 25.7106 17.9428 25.3337 17.9437H10.4671L14.2671 21.7437C14.5337 22.0103 14.6617 22.3214 14.6511 22.677C14.6404 23.0326 14.5124 23.3437 14.2671 23.6103C14.0004 23.877 13.6835 24.0157 13.3164 24.0263C12.9493 24.037 12.6329 23.9094 12.3671 23.6437L6.26708 17.5437C6.13374 17.4103 6.03908 17.2659 5.98308 17.1103C5.92708 16.9548 5.89952 16.7881 5.90041 16.6103C5.9013 16.4326 5.92886 16.2659 5.98308 16.1103C6.0373 15.9548 6.13197 15.8103 6.26708 15.677L12.3671 9.577C12.6337 9.31033 12.9502 9.18233 13.3164 9.193C13.6826 9.20366 13.9995 9.34278 14.2671 9.61033C14.5115 9.877 14.6395 10.1881 14.6511 10.5437C14.6626 10.8992 14.5346 11.2103 14.2671 11.477L10.4671 15.277Z" fill="#04A9EC"/>
</g>
</svg>
